<svg xmlns="http://www.w3.org/2000/svg" width="16" height="18" viewBox="0 0 16 18">
  <path id="paperclip" d="M25.5,16.47a5.289,5.289,0,0,1,0-7.381l7.759-7.912a3.9,3.9,0,0,1,5.583,0,4.08,4.08,0,0,1,0,5.693L32.31,13.533a2.743,2.743,0,0,1-3.928,0,2.871,2.871,0,0,1,0-4.006l5.533-5.642a.408.408,0,0,1,.585,0l.585.6a.428.428,0,0,1,0,.6L29.551,10.72a1.16,1.16,0,0,0,0,1.619,1.109,1.109,0,0,0,1.588,0l6.533-6.662a2.369,2.369,0,0,0,0-3.307,2.265,2.265,0,0,0-3.243,0l-7.759,7.912a3.579,3.579,0,0,0,0,4.994,3.417,3.417,0,0,0,4.9,0l6.755-6.891a.408.408,0,0,1,.585,0l.585.6a.428.428,0,0,1,0,.6l-6.755,6.89a5.048,5.048,0,0,1-7.243,0Z" transform="translate(-24 0)" fill="#26589c"/>
</svg>