<svg xmlns="http://www.w3.org/2000/svg" width="18.446" height="20.274" viewBox="0 0 18.446 20.274">
  <g id="Icon_feather-share-2" data-name="Icon feather-share-2" transform="translate(1 1)">
    <path id="Path_1146" data-name="Path 1146" d="M27.982,5.741A2.741,2.741,0,1,1,25.241,3,2.741,2.741,0,0,1,27.982,5.741Z" transform="translate(-11.536 -3)" fill="none" stroke="#3d3d3d" stroke-linecap="round" stroke-linejoin="round" stroke-width="2"/>
    <path id="Path_1147" data-name="Path 1147" d="M9.982,16.241A2.741,2.741,0,1,1,7.241,13.5,2.741,2.741,0,0,1,9.982,16.241Z" transform="translate(-4.5 -7.104)" fill="none" stroke="#3d3d3d" stroke-linecap="round" stroke-linejoin="round" stroke-width="2"/>
    <path id="Path_1148" data-name="Path 1148" d="M27.982,26.741A2.741,2.741,0,1,1,25.241,24,2.741,2.741,0,0,1,27.982,26.741Z" transform="translate(-11.536 -11.208)" fill="none" stroke="#3d3d3d" stroke-linecap="round" stroke-linejoin="round" stroke-width="2"/>
    <path id="Path_1149" data-name="Path 1149" d="M12.885,20.265l6.24,3.636" transform="translate(-7.778 -9.749)" fill="none" stroke="#3d3d3d" stroke-linecap="round" stroke-linejoin="round" stroke-width="2"/>
    <path id="Path_1150" data-name="Path 1150" d="M19.116,9.765,12.885,13.4" transform="translate(-7.778 -5.644)" fill="none" stroke="#3d3d3d" stroke-linecap="round" stroke-linejoin="round" stroke-width="2"/>
  </g>
</svg>
